<svg xmlns="http://www.w3.org/2000/svg" viewBox="0 0 1200 760" role="img" aria-label="Turtle culture cover">
  <rect width="1200" height="760" fill="#12221e"/>
  <circle cx="212" cy="190" r="86" fill="#f05f4b"/>
  <circle cx="994" cy="584" r="118" fill="#f2b45f"/>
  <path d="M0 520 C220 440 400 665 640 540 C815 450 980 475 1200 408 L1200 760 L0 760 Z" fill="#223f36"/>
  <g transform="translate(265 170)">
    <rect x="24" y="30" width="650" height="385" rx="24" fill="#f7f2e8"/>
    <rect x="78" y="86" width="542" height="64" rx="12" fill="#173e35"/>
    <rect x="78" y="184" width="190" height="160" rx="16" fill="#f05f4b"/>
    <rect x="304" y="184" width="316" height="26" rx="8" fill="#173e35"/>
    <rect x="304" y="232" width="260" height="20" rx="8" fill="#6a8178"/>
    <rect x="304" y="274" width="300" height="20" rx="8" fill="#6a8178"/>
    <rect x="304" y="316" width="210" height="20" rx="8" fill="#6a8178"/>
    <ellipse cx="174" cy="264" rx="72" ry="44" fill="#173e35"/>
    <path d="M132 265 C142 229 205 228 216 265 C202 294 146 294 132 265Z" fill="#78bd8a"/>
    <circle cx="258" cy="262" r="20" fill="#173e35"/>
  </g>
  <text x="86" y="96" fill="#fffaf2" font-family="Arial, Helvetica, sans-serif" font-size="34" font-weight="700">Culture Beat</text>
</svg>
